<svg aria-roledescription="er" role="graphics-document document" viewBox="0 0 899.8453369140625 1322" style="max-width: 100%;" xmlns="http://www.w3.org/2000/svg" width="100%" id="graph-div" height="100%" xmlns:xlink="http://www.w3.org/1999/xlink"><style>@import url("https://cdnjs.cloudflare.com/ajax/libs/font-awesome/6.5.2/css/all.min.css");'</style><style>#graph-div{font-family:"trebuchet ms",verdana,arial,sans-serif;font-size:16px;fill:#333;}#graph-div .error-icon{fill:#552222;}#graph-div .error-text{fill:#552222;stroke:#552222;}#graph-div .edge-thickness-normal{stroke-width:2px;}#graph-div .edge-thickness-thick{stroke-width:3.5px;}#graph-div .edge-pattern-solid{stroke-dasharray:0;}#graph-div .edge-pattern-dashed{stroke-dasharray:3;}#graph-div .edge-pattern-dotted{stroke-dasharray:2;}#graph-div .marker{fill:#333333;stroke:#333333;}#graph-div .marker.cross{stroke:#333333;}#graph-div svg{font-family:"trebuchet ms",verdana,arial,sans-serif;font-size:16px;}#graph-div .entityBox{fill:#ECECFF;stroke:#9370DB;}#graph-div .attributeBoxOdd{fill:#ffffff;stroke:#9370DB;}#graph-div .attributeBoxEven{fill:#f2f2f2;stroke:#9370DB;}#graph-div .relationshipLabelBox{fill:hsl(80, 100%, 96.2745098039%);opacity:0.7;background-color:hsl(80, 100%, 96.2745098039%);}#graph-div .relationshipLabelBox rect{opacity:0.5;}#graph-div .relationshipLine{stroke:#333333;}#graph-div .entityTitleText{text-anchor:middle;font-size:18px;fill:#333;}#graph-div #MD_PARENT_START{fill:#f5f5f5!important;stroke:#333333!important;stroke-width:1;}#graph-div #MD_PARENT_END{fill:#f5f5f5!important;stroke:#333333!important;stroke-width:1;}#graph-div :root{--mermaid-font-family:"trebuchet ms",verdana,arial,sans-serif;}</style><g></g><defs><marker orient="auto" markerHeight="240" markerWidth="190" refY="7" refX="0" id="MD_PARENT_START"><path d="M 18,7 L9,13 L1,7 L9,1 Z"></path></marker></defs><defs><marker orient="auto" markerHeight="28" markerWidth="20" refY="7" refX="19" id="MD_PARENT_END"><path d="M 18,7 L9,13 L1,7 L9,1 Z"></path></marker></defs><defs><marker orient="auto" markerHeight="18" markerWidth="18" refY="9" refX="0" id="ONLY_ONE_START"><path d="M9,0 L9,18 M15,0 L15,18" fill="none" stroke="gray"></path></marker></defs><defs><marker orient="auto" markerHeight="18" markerWidth="18" refY="9" refX="18" id="ONLY_ONE_END"><path d="M3,0 L3,18 M9,0 L9,18" fill="none" stroke="gray"></path></marker></defs><defs><marker orient="auto" markerHeight="18" markerWidth="30" refY="9" refX="0" id="ZERO_OR_ONE_START"><circle r="6" cy="9" cx="21" fill="white" stroke="gray"></circle><path d="M9,0 L9,18" fill="none" stroke="gray"></path></marker></defs><defs><marker orient="auto" markerHeight="18" markerWidth="30" refY="9" refX="30" id="ZERO_OR_ONE_END"><circle r="6" cy="9" cx="9" fill="white" stroke="gray"></circle><path d="M21,0 L21,18" fill="none" stroke="gray"></path></marker></defs><defs><marker orient="auto" markerHeight="36" markerWidth="45" refY="18" refX="18" id="ONE_OR_MORE_START"><path d="M0,18 Q 18,0 36,18 Q 18,36 0,18 M42,9 L42,27" fill="none" stroke="gray"></path></marker></defs><defs><marker orient="auto" markerHeight="36" markerWidth="45" refY="18" refX="27" id="ONE_OR_MORE_END"><path d="M3,9 L3,27 M9,18 Q27,0 45,18 Q27,36 9,18" fill="none" stroke="gray"></path></marker></defs><defs><marker orient="auto" markerHeight="36" markerWidth="57" refY="18" refX="18" id="ZERO_OR_MORE_START"><circle r="6" cy="18" cx="48" fill="white" stroke="gray"></circle><path d="M0,18 Q18,0 36,18 Q18,36 0,18" fill="none" stroke="gray"></path></marker></defs><defs><marker orient="auto" markerHeight="36" markerWidth="57" refY="18" refX="39" id="ZERO_OR_MORE_END"><circle r="6" cy="18" cx="9" fill="white" stroke="gray"></circle><path d="M21,18 Q39,0 57,18 Q39,36 21,18" fill="none" stroke="gray"></path></marker></defs><path style="stroke: gray; fill: none;" marker-start="url(#ONLY_ONE_START)" marker-end="url(#ZERO_OR_MORE_END)" d="M498.671,176L498.671,184.333C498.671,192.667,498.671,209.333,498.671,237.167C498.671,265,498.671,304,498.671,343C498.671,382,498.671,421,498.671,454.5C498.671,488,498.671,516,498.671,544C498.671,572,498.671,600,494.037,622.333C489.402,644.667,480.134,661.333,475.499,669.667L470.865,678" class="er relationshipLine"></path><path style="stroke: gray; fill: none;" marker-start="url(#ONLY_ONE_START)" marker-end="url(#ZERO_OR_MORE_END)" d="M567.796,164.352L578.5,174.626C589.204,184.901,610.613,205.451,621.317,235.225C632.021,265,632.021,304,632.021,343C632.021,382,632.021,421,632.021,454.5C632.021,488,632.021,516,632.021,544C632.021,572,632.021,600,632.021,639C632.021,678,632.021,728,632.021,778C632.021,828,632.021,878,630.5,911.333C628.978,944.667,625.934,961.333,624.412,969.667L622.891,978" class="er relationshipLine"></path><path style="stroke: gray; fill: none;" marker-start="url(#ONLY_ONE_START)" marker-end="url(#ZERO_OR_MORE_END)" d="M567.796,123.8L613.433,140.833C659.069,157.867,750.343,191.933,795.979,228.467C841.616,265,841.616,304,841.616,343C841.616,382,841.616,421,841.616,454.5C841.616,488,841.616,516,841.616,544C841.616,572,841.616,600,841.616,639C841.616,678,841.616,728,841.616,778C841.616,828,841.616,878,840.224,916.833C838.833,955.667,836.049,983.333,834.658,997.167L833.266,1011" class="er relationshipLine"></path><path style="stroke: gray; fill: none;" marker-start="url(#ONLY_ONE_START)" marker-end="url(#ZERO_OR_MORE_END)" d="M429.546,119.784L373.371,137.486C317.196,155.189,204.847,190.595,148.672,220.297C92.497,250,92.497,274,92.497,286L92.497,298" class="er relationshipLine"></path><path style="stroke: gray; fill: none;" marker-start="url(#ONLY_ONE_START)" marker-end="url(#ZERO_OR_MORE_END)" d="M429.546,151.033L413.261,163.528C396.975,176.022,364.404,201.011,348.118,221.839C331.832,242.667,331.832,259.333,331.832,267.667L331.832,276" class="er relationshipLine"></path><path style="stroke: gray; fill: none;" marker-start="url(#ONLY_ONE_START)" marker-end="url(#ZERO_OR_MORE_END)" d="M442.235,878L444.483,886.333C446.732,894.667,451.229,911.333,467.768,930.458C484.306,949.583,512.886,971.166,527.176,981.958L541.466,992.749" class="er relationshipLine"></path><path style="stroke: gray; fill: none;" marker-start="url(#ONLY_ONE_START)" marker-end="url(#ZERO_OR_MORE_END)" d="M481.952,809.585L523.63,829.32C565.308,849.056,648.665,888.528,701.909,922.097C755.153,955.667,778.286,983.333,789.852,997.167L801.418,1011" class="er relationshipLine"></path><path style="stroke: gray; fill: none;" marker-start="url(#ONLY_ONE_START)" marker-end="url(#ZERO_OR_MORE_END)" d="M375.568,878L372.261,886.333C368.954,894.667,362.34,911.333,359.033,933.5C355.726,955.667,355.726,983.333,355.726,997.167L355.726,1011" class="er relationshipLine"></path><path style="stroke: gray; fill: none;" marker-start="url(#ONLY_ONE_START)" marker-end="url(#ONE_OR_MORE_END)" d="M355.726,1079L355.726,1092.833C355.726,1106.667,355.726,1134.333,355.726,1156.5C355.726,1178.667,355.726,1195.333,355.726,1203.667L355.726,1212" class="er relationshipLine"></path><path style="stroke: gray; fill: none;" marker-start="url(#ONLY_ONE_START)" marker-end="url(#ZERO_OR_MORE_END)" d="M331.832,410L331.832,418.333C331.832,426.667,331.832,443.333,331.832,460C331.832,476.667,331.832,493.333,331.832,501.667L331.832,510" class="er relationshipLine"></path><path style="stroke: gray; fill: none;" marker-start="url(#ONLY_ONE_START)" marker-end="url(#ZERO_OR_MORE_END)" d="M331.832,578L331.832,586.333C331.832,594.667,331.832,611.333,336.467,628C341.101,644.667,350.37,661.333,355.004,669.667L359.639,678" class="er relationshipLine"></path><g transform="translate(429.54624938964844,20 )" id="entity-User-818c511a-4a32-5484-ba70-875d765a9175"><rect height="156" width="138.24981689453125" y="0" x="0" class="er entityBox"></rect><text transform="translate(69.12490844726562,12)" style="dominant-baseline: middle; text-anchor: middle; font-size: 12px;" y="0" x="0" id="text-entity-User-818c511a-4a32-5484-ba70-875d765a9175" class="er entityLabel">User</text><rect height="22" width="36.61909484863281" y="24" x="0" class="er attributeBoxOdd"></rect><text transform="translate(5,35)" style="dominant-baseline: middle; font-size: 10.2px;" y="0" x="0" id="text-entity-User-818c511a-4a32-5484-ba70-875d765a9175-attr-1-type" class="er entityLabel">int</text><rect height="22" width="78.94303894042969" y="24" x="36.61909484863281" class="er attributeBoxOdd"></rect><text transform="translate(41.61909484863281,35)" style="dominant-baseline: middle; font-size: 10.2px;" y="0" x="0" id="text-entity-User-818c511a-4a32-5484-ba70-875d765a9175-attr-1-name" class="er entityLabel">user_id</text><rect height="22" width="22.68768310546875" y="24" x="115.5621337890625" class="er attributeBoxOdd"></rect><text transform="translate(120.5621337890625,35)" style="dominant-baseline: middle; font-size: 10.2px;" y="0" x="0" id="text-entity-User-818c511a-4a32-5484-ba70-875d765a9175-attr-1-key" class="er entityLabel">PK</text><rect height="22" width="36.61909484863281" y="46" x="0" class="er attributeBoxEven"></rect><text transform="translate(5,57)" style="dominant-baseline: middle; font-size: 10.2px;" y="0" x="0" id="text-entity-User-818c511a-4a32-5484-ba70-875d765a9175-attr-2-type" class="er entityLabel">string</text><rect height="22" width="78.94303894042969" y="46" x="36.61909484863281" class="er attributeBoxEven"></rect><text transform="translate(41.61909484863281,57)" style="dominant-baseline: middle; font-size: 10.2px;" y="0" x="0" id="text-entity-User-818c511a-4a32-5484-ba70-875d765a9175-attr-2-name" class="er entityLabel">username</text><rect height="22" width="22.68768310546875" y="46" x="115.5621337890625" class="er attributeBoxEven"></rect><text transform="translate(120.5621337890625,57)" style="dominant-baseline: middle; font-size: 10.2px;" y="0" x="0" id="text-entity-User-818c511a-4a32-5484-ba70-875d765a9175-attr-2-key" class="er entityLabel"></text><rect height="22" width="36.61909484863281" y="68" x="0" class="er attributeBoxOdd"></rect><text transform="translate(5,79)" style="dominant-baseline: middle; font-size: 10.2px;" y="0" x="0" id="text-entity-User-818c511a-4a32-5484-ba70-875d765a9175-attr-3-type" class="er entityLabel">string</text><rect height="22" width="78.94303894042969" y="68" x="36.61909484863281" class="er attributeBoxOdd"></rect><text transform="translate(41.61909484863281,79)" style="dominant-baseline: middle; font-size: 10.2px;" y="0" x="0" id="text-entity-User-818c511a-4a32-5484-ba70-875d765a9175-attr-3-name" class="er entityLabel">email</text><rect height="22" width="22.68768310546875" y="68" x="115.5621337890625" class="er attributeBoxOdd"></rect><text transform="translate(120.5621337890625,79)" style="dominant-baseline: middle; font-size: 10.2px;" y="0" x="0" id="text-entity-User-818c511a-4a32-5484-ba70-875d765a9175-attr-3-key" class="er entityLabel"></text><rect height="22" width="36.61909484863281" y="90" x="0" class="er attributeBoxEven"></rect><text transform="translate(5,101)" style="dominant-baseline: middle; font-size: 10.2px;" y="0" x="0" id="text-entity-User-818c511a-4a32-5484-ba70-875d765a9175-attr-4-type" class="er entityLabel">string</text><rect height="22" width="78.94303894042969" y="90" x="36.61909484863281" class="er attributeBoxEven"></rect><text transform="translate(41.61909484863281,101)" style="dominant-baseline: middle; font-size: 10.2px;" y="0" x="0" id="text-entity-User-818c511a-4a32-5484-ba70-875d765a9175-attr-4-name" class="er entityLabel">password</text><rect height="22" width="22.68768310546875" y="90" x="115.5621337890625" class="er attributeBoxEven"></rect><text transform="translate(120.5621337890625,101)" style="dominant-baseline: middle; font-size: 10.2px;" y="0" x="0" id="text-entity-User-818c511a-4a32-5484-ba70-875d765a9175-attr-4-key" class="er entityLabel"></text><rect height="22" width="36.61909484863281" y="112" x="0" class="er attributeBoxOdd"></rect><text transform="translate(5,123)" style="dominant-baseline: middle; font-size: 10.2px;" y="0" x="0" id="text-entity-User-818c511a-4a32-5484-ba70-875d765a9175-attr-5-type" class="er entityLabel">date</text><rect height="22" width="78.94303894042969" y="112" x="36.61909484863281" class="er attributeBoxOdd"></rect><text transform="translate(41.61909484863281,123)" style="dominant-baseline: middle; font-size: 10.2px;" y="0" x="0" id="text-entity-User-818c511a-4a32-5484-ba70-875d765a9175-attr-5-name" class="er entityLabel">date_joined</text><rect height="22" width="22.68768310546875" y="112" x="115.5621337890625" class="er attributeBoxOdd"></rect><text transform="translate(120.5621337890625,123)" style="dominant-baseline: middle; font-size: 10.2px;" y="0" x="0" id="text-entity-User-818c511a-4a32-5484-ba70-875d765a9175-attr-5-key" class="er entityLabel"></text><rect height="22" width="36.61909484863281" y="134" x="0" class="er attributeBoxEven"></rect><text transform="translate(5,145)" style="dominant-baseline: middle; font-size: 10.2px;" y="0" x="0" id="text-entity-User-818c511a-4a32-5484-ba70-875d765a9175-attr-6-type" class="er entityLabel">string</text><rect height="22" width="78.94303894042969" y="134" x="36.61909484863281" class="er attributeBoxEven"></rect><text transform="translate(41.61909484863281,145)" style="dominant-baseline: middle; font-size: 10.2px;" y="0" x="0" id="text-entity-User-818c511a-4a32-5484-ba70-875d765a9175-attr-6-name" class="er entityLabel">profile_picture</text><rect height="22" width="22.68768310546875" y="134" x="115.5621337890625" class="er attributeBoxEven"></rect><text transform="translate(120.5621337890625,145)" style="dominant-baseline: middle; font-size: 10.2px;" y="0" x="0" id="text-entity-User-818c511a-4a32-5484-ba70-875d765a9175-attr-6-key" class="er entityLabel"></text></g><g transform="translate(348.55145263671875,678 )" id="entity-Video-82b4a79c-b969-5a99-9dc7-f00117579345"><rect height="200" width="133.40052795410156" y="0" x="0" class="er entityBox"></rect><text transform="translate(66.70026397705078,12)" style="dominant-baseline: middle; text-anchor: middle; font-size: 12px;" y="0" x="0" id="text-entity-Video-82b4a79c-b969-5a99-9dc7-f00117579345" class="er entityLabel">Video</text><rect height="22" width="36.61909484863281" y="24" x="0" class="er attributeBoxOdd"></rect><text transform="translate(5,35)" style="dominant-baseline: middle; font-size: 10.2px;" y="0" x="0" id="text-entity-Video-82b4a79c-b969-5a99-9dc7-f00117579345-attr-1-type" class="er entityLabel">int</text><rect height="22" width="74.09375" y="24" x="36.61909484863281" class="er attributeBoxOdd"></rect><text transform="translate(41.61909484863281,35)" style="dominant-baseline: middle; font-size: 10.2px;" y="0" x="0" id="text-entity-Video-82b4a79c-b969-5a99-9dc7-f00117579345-attr-1-name" class="er entityLabel">video_id</text><rect height="22" width="22.68768310546875" y="24" x="110.71284484863281" class="er attributeBoxOdd"></rect><text transform="translate(115.71284484863281,35)" style="dominant-baseline: middle; font-size: 10.2px;" y="0" x="0" id="text-entity-Video-82b4a79c-b969-5a99-9dc7-f00117579345-attr-1-key" class="er entityLabel">PK</text><rect height="22" width="36.61909484863281" y="46" x="0" class="er attributeBoxEven"></rect><text transform="translate(5,57)" style="dominant-baseline: middle; font-size: 10.2px;" y="0" x="0" id="text-entity-Video-82b4a79c-b969-5a99-9dc7-f00117579345-attr-2-type" class="er entityLabel">int</text><rect height="22" width="74.09375" y="46" x="36.61909484863281" class="er attributeBoxEven"></rect><text transform="translate(41.61909484863281,57)" style="dominant-baseline: middle; font-size: 10.2px;" y="0" x="0" id="text-entity-Video-82b4a79c-b969-5a99-9dc7-f00117579345-attr-2-name" class="er entityLabel">user_id</text><rect height="22" width="22.68768310546875" y="46" x="110.71284484863281" class="er attributeBoxEven"></rect><text transform="translate(115.71284484863281,57)" style="dominant-baseline: middle; font-size: 10.2px;" y="0" x="0" id="text-entity-Video-82b4a79c-b969-5a99-9dc7-f00117579345-attr-2-key" class="er entityLabel">FK</text><rect height="22" width="36.61909484863281" y="68" x="0" class="er attributeBoxOdd"></rect><text transform="translate(5,79)" style="dominant-baseline: middle; font-size: 10.2px;" y="0" x="0" id="text-entity-Video-82b4a79c-b969-5a99-9dc7-f00117579345-attr-3-type" class="er entityLabel">string</text><rect height="22" width="74.09375" y="68" x="36.61909484863281" class="er attributeBoxOdd"></rect><text transform="translate(41.61909484863281,79)" style="dominant-baseline: middle; font-size: 10.2px;" y="0" x="0" id="text-entity-Video-82b4a79c-b969-5a99-9dc7-f00117579345-attr-3-name" class="er entityLabel">title</text><rect height="22" width="22.68768310546875" y="68" x="110.71284484863281" class="er attributeBoxOdd"></rect><text transform="translate(115.71284484863281,79)" style="dominant-baseline: middle; font-size: 10.2px;" y="0" x="0" id="text-entity-Video-82b4a79c-b969-5a99-9dc7-f00117579345-attr-3-key" class="er entityLabel"></text><rect height="22" width="36.61909484863281" y="90" x="0" class="er attributeBoxEven"></rect><text transform="translate(5,101)" style="dominant-baseline: middle; font-size: 10.2px;" y="0" x="0" id="text-entity-Video-82b4a79c-b969-5a99-9dc7-f00117579345-attr-4-type" class="er entityLabel">string</text><rect height="22" width="74.09375" y="90" x="36.61909484863281" class="er attributeBoxEven"></rect><text transform="translate(41.61909484863281,101)" style="dominant-baseline: middle; font-size: 10.2px;" y="0" x="0" id="text-entity-Video-82b4a79c-b969-5a99-9dc7-f00117579345-attr-4-name" class="er entityLabel">description</text><rect height="22" width="22.68768310546875" y="90" x="110.71284484863281" class="er attributeBoxEven"></rect><text transform="translate(115.71284484863281,101)" style="dominant-baseline: middle; font-size: 10.2px;" y="0" x="0" id="text-entity-Video-82b4a79c-b969-5a99-9dc7-f00117579345-attr-4-key" class="er entityLabel"></text><rect height="22" width="36.61909484863281" y="112" x="0" class="er attributeBoxOdd"></rect><text transform="translate(5,123)" style="dominant-baseline: middle; font-size: 10.2px;" y="0" x="0" id="text-entity-Video-82b4a79c-b969-5a99-9dc7-f00117579345-attr-5-type" class="er entityLabel">date</text><rect height="22" width="74.09375" y="112" x="36.61909484863281" class="er attributeBoxOdd"></rect><text transform="translate(41.61909484863281,123)" style="dominant-baseline: middle; font-size: 10.2px;" y="0" x="0" id="text-entity-Video-82b4a79c-b969-5a99-9dc7-f00117579345-attr-5-name" class="er entityLabel">upload_date</text><rect height="22" width="22.68768310546875" y="112" x="110.71284484863281" class="er attributeBoxOdd"></rect><text transform="translate(115.71284484863281,123)" style="dominant-baseline: middle; font-size: 10.2px;" y="0" x="0" id="text-entity-Video-82b4a79c-b969-5a99-9dc7-f00117579345-attr-5-key" class="er entityLabel"></text><rect height="22" width="36.61909484863281" y="134" x="0" class="er attributeBoxEven"></rect><text transform="translate(5,145)" style="dominant-baseline: middle; font-size: 10.2px;" y="0" x="0" id="text-entity-Video-82b4a79c-b969-5a99-9dc7-f00117579345-attr-6-type" class="er entityLabel">string</text><rect height="22" width="74.09375" y="134" x="36.61909484863281" class="er attributeBoxEven"></rect><text transform="translate(41.61909484863281,145)" style="dominant-baseline: middle; font-size: 10.2px;" y="0" x="0" id="text-entity-Video-82b4a79c-b969-5a99-9dc7-f00117579345-attr-6-name" class="er entityLabel">video_url</text><rect height="22" width="22.68768310546875" y="134" x="110.71284484863281" class="er attributeBoxEven"></rect><text transform="translate(115.71284484863281,145)" style="dominant-baseline: middle; font-size: 10.2px;" y="0" x="0" id="text-entity-Video-82b4a79c-b969-5a99-9dc7-f00117579345-attr-6-key" class="er entityLabel"></text><rect height="22" width="36.61909484863281" y="156" x="0" class="er attributeBoxOdd"></rect><text transform="translate(5,167)" style="dominant-baseline: middle; font-size: 10.2px;" y="0" x="0" id="text-entity-Video-82b4a79c-b969-5a99-9dc7-f00117579345-attr-7-type" class="er entityLabel">string</text><rect height="22" width="74.09375" y="156" x="36.61909484863281" class="er attributeBoxOdd"></rect><text transform="translate(41.61909484863281,167)" style="dominant-baseline: middle; font-size: 10.2px;" y="0" x="0" id="text-entity-Video-82b4a79c-b969-5a99-9dc7-f00117579345-attr-7-name" class="er entityLabel">thumbnail_url</text><rect height="22" width="22.68768310546875" y="156" x="110.71284484863281" class="er attributeBoxOdd"></rect><text transform="translate(115.71284484863281,167)" style="dominant-baseline: middle; font-size: 10.2px;" y="0" x="0" id="text-entity-Video-82b4a79c-b969-5a99-9dc7-f00117579345-attr-7-key" class="er entityLabel"></text><rect height="22" width="36.61909484863281" y="178" x="0" class="er attributeBoxEven"></rect><text transform="translate(5,189)" style="dominant-baseline: middle; font-size: 10.2px;" y="0" x="0" id="text-entity-Video-82b4a79c-b969-5a99-9dc7-f00117579345-attr-8-type" class="er entityLabel">int</text><rect height="22" width="74.09375" y="178" x="36.61909484863281" class="er attributeBoxEven"></rect><text transform="translate(41.61909484863281,189)" style="dominant-baseline: middle; font-size: 10.2px;" y="0" x="0" id="text-entity-Video-82b4a79c-b969-5a99-9dc7-f00117579345-attr-8-name" class="er entityLabel">views_count</text><rect height="22" width="22.68768310546875" y="178" x="110.71284484863281" class="er attributeBoxEven"></rect><text transform="translate(115.71284484863281,189)" style="dominant-baseline: middle; font-size: 10.2px;" y="0" x="0" id="text-entity-Video-82b4a79c-b969-5a99-9dc7-f00117579345-attr-8-key" class="er entityLabel"></text></g><g transform="translate(294.14168548583984,1212 )" id="entity-Category-1a07ff93-e37c-5c4b-81d2-6cefab6d4eed"><rect height="90" width="123.16900634765625" y="0" x="0" class="er entityBox"></rect><text transform="translate(61.584503173828125,12)" style="dominant-baseline: middle; text-anchor: middle; font-size: 12px;" y="0" x="0" id="text-entity-Category-1a07ff93-e37c-5c4b-81d2-6cefab6d4eed" class="er entityLabel">Category</text><rect height="22" width="36.61909484863281" y="24" x="0" class="er attributeBoxOdd"></rect><text transform="translate(5,35)" style="dominant-baseline: middle; font-size: 10.2px;" y="0" x="0" id="text-entity-Category-1a07ff93-e37c-5c4b-81d2-6cefab6d4eed-attr-1-type" class="er entityLabel">int</text><rect height="22" width="63.86222839355469" y="24" x="36.61909484863281" class="er attributeBoxOdd"></rect><text transform="translate(41.61909484863281,35)" style="dominant-baseline: middle; font-size: 10.2px;" y="0" x="0" id="text-entity-Category-1a07ff93-e37c-5c4b-81d2-6cefab6d4eed-attr-1-name" class="er entityLabel">category_id</text><rect height="22" width="22.68768310546875" y="24" x="100.4813232421875" class="er attributeBoxOdd"></rect><text transform="translate(105.4813232421875,35)" style="dominant-baseline: middle; font-size: 10.2px;" y="0" x="0" id="text-entity-Category-1a07ff93-e37c-5c4b-81d2-6cefab6d4eed-attr-1-key" class="er entityLabel">PK</text><rect height="22" width="36.61909484863281" y="46" x="0" class="er attributeBoxEven"></rect><text transform="translate(5,57)" style="dominant-baseline: middle; font-size: 10.2px;" y="0" x="0" id="text-entity-Category-1a07ff93-e37c-5c4b-81d2-6cefab6d4eed-attr-2-type" class="er entityLabel">string</text><rect height="22" width="63.86222839355469" y="46" x="36.61909484863281" class="er attributeBoxEven"></rect><text transform="translate(41.61909484863281,57)" style="dominant-baseline: middle; font-size: 10.2px;" y="0" x="0" id="text-entity-Category-1a07ff93-e37c-5c4b-81d2-6cefab6d4eed-attr-2-name" class="er entityLabel">name</text><rect height="22" width="22.68768310546875" y="46" x="100.4813232421875" class="er attributeBoxEven"></rect><text transform="translate(105.4813232421875,57)" style="dominant-baseline: middle; font-size: 10.2px;" y="0" x="0" id="text-entity-Category-1a07ff93-e37c-5c4b-81d2-6cefab6d4eed-attr-2-key" class="er entityLabel"></text><rect height="22" width="36.61909484863281" y="68" x="0" class="er attributeBoxOdd"></rect><text transform="translate(5,79)" style="dominant-baseline: middle; font-size: 10.2px;" y="0" x="0" id="text-entity-Category-1a07ff93-e37c-5c4b-81d2-6cefab6d4eed-attr-3-type" class="er entityLabel">string</text><rect height="22" width="63.86222839355469" y="68" x="36.61909484863281" class="er attributeBoxOdd"></rect><text transform="translate(41.61909484863281,79)" style="dominant-baseline: middle; font-size: 10.2px;" y="0" x="0" id="text-entity-Category-1a07ff93-e37c-5c4b-81d2-6cefab6d4eed-attr-3-name" class="er entityLabel">description</text><rect height="22" width="22.68768310546875" y="68" x="100.4813232421875" class="er attributeBoxOdd"></rect><text transform="translate(105.4813232421875,79)" style="dominant-baseline: middle; font-size: 10.2px;" y="0" x="0" id="text-entity-Category-1a07ff93-e37c-5c4b-81d2-6cefab6d4eed-attr-3-key" class="er entityLabel"></text></g><g transform="translate(300.80821990966797,1011 )" id="entity-VideoCategory-1a8ca7f0-cb04-5500-bca3-7a474bd09070"><rect height="68" width="109.8359375" y="0" x="0" class="er entityBox"></rect><text transform="translate(54.91796875,12)" style="dominant-baseline: middle; text-anchor: middle; font-size: 12px;" y="0" x="0" id="text-entity-VideoCategory-1a8ca7f0-cb04-5500-bca3-7a474bd09070" class="er entityLabel">VideoCategory</text><rect height="22" width="23.52771504720052" y="24" x="0" class="er attributeBoxOdd"></rect><text transform="translate(5,35)" style="dominant-baseline: middle; font-size: 10.2px;" y="0" x="0" id="text-entity-VideoCategory-1a8ca7f0-cb04-5500-bca3-7a474bd09070-attr-1-type" class="er entityLabel">int</text><rect height="22" width="63.908223470052086" y="24" x="23.52771504720052" class="er attributeBoxOdd"></rect><text transform="translate(28.52771504720052,35)" style="dominant-baseline: middle; font-size: 10.2px;" y="0" x="0" id="text-entity-VideoCategory-1a8ca7f0-cb04-5500-bca3-7a474bd09070-attr-1-name" class="er entityLabel">video_id</text><rect height="22" width="22.399998982747395" y="24" x="87.43593851725261" class="er attributeBoxOdd"></rect><text transform="translate(92.43593851725261,35)" style="dominant-baseline: middle; font-size: 10.2px;" y="0" x="0" id="text-entity-VideoCategory-1a8ca7f0-cb04-5500-bca3-7a474bd09070-attr-1-key" class="er entityLabel">FK</text><rect height="22" width="23.52771504720052" y="46" x="0" class="er attributeBoxEven"></rect><text transform="translate(5,57)" style="dominant-baseline: middle; font-size: 10.2px;" y="0" x="0" id="text-entity-VideoCategory-1a8ca7f0-cb04-5500-bca3-7a474bd09070-attr-2-type" class="er entityLabel">int</text><rect height="22" width="63.908223470052086" y="46" x="23.52771504720052" class="er attributeBoxEven"></rect><text transform="translate(28.52771504720052,57)" style="dominant-baseline: middle; font-size: 10.2px;" y="0" x="0" id="text-entity-VideoCategory-1a8ca7f0-cb04-5500-bca3-7a474bd09070-attr-2-name" class="er entityLabel">category_id</text><rect height="22" width="22.399998982747395" y="46" x="87.43593851725261" class="er attributeBoxEven"></rect><text transform="translate(92.43593851725261,57)" style="dominant-baseline: middle; font-size: 10.2px;" y="0" x="0" id="text-entity-VideoCategory-1a8ca7f0-cb04-5500-bca3-7a474bd09070-attr-2-key" class="er entityLabel">FK</text></g><g transform="translate(541.4659957885742,978 )" id="entity-Comment-09a819da-2a79-5b7d-8a84-94cec22d9152"><rect height="134" width="138.3793487548828" y="0" x="0" class="er entityBox"></rect><text transform="translate(69.1896743774414,12)" style="dominant-baseline: middle; text-anchor: middle; font-size: 12px;" y="0" x="0" id="text-entity-Comment-09a819da-2a79-5b7d-8a84-94cec22d9152" class="er entityLabel">Comment</text><rect height="22" width="36.61909484863281" y="24" x="0" class="er attributeBoxOdd"></rect><text transform="translate(5,35)" style="dominant-baseline: middle; font-size: 10.2px;" y="0" x="0" id="text-entity-Comment-09a819da-2a79-5b7d-8a84-94cec22d9152-attr-1-type" class="er entityLabel">int</text><rect height="22" width="79.07257080078125" y="24" x="36.61909484863281" class="er attributeBoxOdd"></rect><text transform="translate(41.61909484863281,35)" style="dominant-baseline: middle; font-size: 10.2px;" y="0" x="0" id="text-entity-Comment-09a819da-2a79-5b7d-8a84-94cec22d9152-attr-1-name" class="er entityLabel">comment_id</text><rect height="22" width="22.68768310546875" y="24" x="115.69166564941406" class="er attributeBoxOdd"></rect><text transform="translate(120.69166564941406,35)" style="dominant-baseline: middle; font-size: 10.2px;" y="0" x="0" id="text-entity-Comment-09a819da-2a79-5b7d-8a84-94cec22d9152-attr-1-key" class="er entityLabel">PK</text><rect height="22" width="36.61909484863281" y="46" x="0" class="er attributeBoxEven"></rect><text transform="translate(5,57)" style="dominant-baseline: middle; font-size: 10.2px;" y="0" x="0" id="text-entity-Comment-09a819da-2a79-5b7d-8a84-94cec22d9152-attr-2-type" class="er entityLabel">int</text><rect height="22" width="79.07257080078125" y="46" x="36.61909484863281" class="er attributeBoxEven"></rect><text transform="translate(41.61909484863281,57)" style="dominant-baseline: middle; font-size: 10.2px;" y="0" x="0" id="text-entity-Comment-09a819da-2a79-5b7d-8a84-94cec22d9152-attr-2-name" class="er entityLabel">video_id</text><rect height="22" width="22.68768310546875" y="46" x="115.69166564941406" class="er attributeBoxEven"></rect><text transform="translate(120.69166564941406,57)" style="dominant-baseline: middle; font-size: 10.2px;" y="0" x="0" id="text-entity-Comment-09a819da-2a79-5b7d-8a84-94cec22d9152-attr-2-key" class="er entityLabel">FK</text><rect height="22" width="36.61909484863281" y="68" x="0" class="er attributeBoxOdd"></rect><text transform="translate(5,79)" style="dominant-baseline: middle; font-size: 10.2px;" y="0" x="0" id="text-entity-Comment-09a819da-2a79-5b7d-8a84-94cec22d9152-attr-3-type" class="er entityLabel">int</text><rect height="22" width="79.07257080078125" y="68" x="36.61909484863281" class="er attributeBoxOdd"></rect><text transform="translate(41.61909484863281,79)" style="dominant-baseline: middle; font-size: 10.2px;" y="0" x="0" id="text-entity-Comment-09a819da-2a79-5b7d-8a84-94cec22d9152-attr-3-name" class="er entityLabel">user_id</text><rect height="22" width="22.68768310546875" y="68" x="115.69166564941406" class="er attributeBoxOdd"></rect><text transform="translate(120.69166564941406,79)" style="dominant-baseline: middle; font-size: 10.2px;" y="0" x="0" id="text-entity-Comment-09a819da-2a79-5b7d-8a84-94cec22d9152-attr-3-key" class="er entityLabel">FK</text><rect height="22" width="36.61909484863281" y="90" x="0" class="er attributeBoxEven"></rect><text transform="translate(5,101)" style="dominant-baseline: middle; font-size: 10.2px;" y="0" x="0" id="text-entity-Comment-09a819da-2a79-5b7d-8a84-94cec22d9152-attr-4-type" class="er entityLabel">string</text><rect height="22" width="79.07257080078125" y="90" x="36.61909484863281" class="er attributeBoxEven"></rect><text transform="translate(41.61909484863281,101)" style="dominant-baseline: middle; font-size: 10.2px;" y="0" x="0" id="text-entity-Comment-09a819da-2a79-5b7d-8a84-94cec22d9152-attr-4-name" class="er entityLabel">content</text><rect height="22" width="22.68768310546875" y="90" x="115.69166564941406" class="er attributeBoxEven"></rect><text transform="translate(120.69166564941406,101)" style="dominant-baseline: middle; font-size: 10.2px;" y="0" x="0" id="text-entity-Comment-09a819da-2a79-5b7d-8a84-94cec22d9152-attr-4-key" class="er entityLabel"></text><rect height="22" width="36.61909484863281" y="112" x="0" class="er attributeBoxOdd"></rect><text transform="translate(5,123)" style="dominant-baseline: middle; font-size: 10.2px;" y="0" x="0" id="text-entity-Comment-09a819da-2a79-5b7d-8a84-94cec22d9152-attr-5-type" class="er entityLabel">date</text><rect height="22" width="79.07257080078125" y="112" x="36.61909484863281" class="er attributeBoxOdd"></rect><text transform="translate(41.61909484863281,123)" style="dominant-baseline: middle; font-size: 10.2px;" y="0" x="0" id="text-entity-Comment-09a819da-2a79-5b7d-8a84-94cec22d9152-attr-5-name" class="er entityLabel">comment_date</text><rect height="22" width="22.68768310546875" y="112" x="115.69166564941406" class="er attributeBoxOdd"></rect><text transform="translate(120.69166564941406,123)" style="dominant-baseline: middle; font-size: 10.2px;" y="0" x="0" id="text-entity-Comment-09a819da-2a79-5b7d-8a84-94cec22d9152-attr-5-key" class="er entityLabel"></text></g><g transform="translate(779.845344543457,1011 )" id="entity-Like-6caa5495-cba2-51e4-9a2b-227eb19c2a52"><rect height="68" width="100" y="0" x="0" class="er entityBox"></rect><text transform="translate(50,12)" style="dominant-baseline: middle; text-anchor: middle; font-size: 12px;" y="0" x="0" id="text-entity-Like-6caa5495-cba2-51e4-9a2b-227eb19c2a52" class="er entityLabel">Like</text><rect height="22" width="24.90947977701823" y="24" x="0" class="er attributeBoxOdd"></rect><text transform="translate(5,35)" style="dominant-baseline: middle; font-size: 10.2px;" y="0" x="0" id="text-entity-Like-6caa5495-cba2-51e4-9a2b-227eb19c2a52-attr-1-type" class="er entityLabel">int</text><rect height="22" width="51.308756510416664" y="24" x="24.90947977701823" class="er attributeBoxOdd"></rect><text transform="translate(29.90947977701823,35)" style="dominant-baseline: middle; font-size: 10.2px;" y="0" x="0" id="text-entity-Like-6caa5495-cba2-51e4-9a2b-227eb19c2a52-attr-1-name" class="er entityLabel">video_id</text><rect height="22" width="23.781763712565105" y="24" x="76.21823628743489" class="er attributeBoxOdd"></rect><text transform="translate(81.21823628743489,35)" style="dominant-baseline: middle; font-size: 10.2px;" y="0" x="0" id="text-entity-Like-6caa5495-cba2-51e4-9a2b-227eb19c2a52-attr-1-key" class="er entityLabel">FK</text><rect height="22" width="24.90947977701823" y="46" x="0" class="er attributeBoxEven"></rect><text transform="translate(5,57)" style="dominant-baseline: middle; font-size: 10.2px;" y="0" x="0" id="text-entity-Like-6caa5495-cba2-51e4-9a2b-227eb19c2a52-attr-2-type" class="er entityLabel">int</text><rect height="22" width="51.308756510416664" y="46" x="24.90947977701823" class="er attributeBoxEven"></rect><text transform="translate(29.90947977701823,57)" style="dominant-baseline: middle; font-size: 10.2px;" y="0" x="0" id="text-entity-Like-6caa5495-cba2-51e4-9a2b-227eb19c2a52-attr-2-name" class="er entityLabel">user_id</text><rect height="22" width="23.781763712565105" y="46" x="76.21823628743489" class="er attributeBoxEven"></rect><text transform="translate(81.21823628743489,57)" style="dominant-baseline: middle; font-size: 10.2px;" y="0" x="0" id="text-entity-Like-6caa5495-cba2-51e4-9a2b-227eb19c2a52-attr-2-key" class="er entityLabel">FK</text></g><g transform="translate(20,298 )" id="entity-Subscription-57a38d08-83cf-5b3e-8b7c-3deeaeab3fc2"><rect height="90" width="144.99339294433594" y="0" x="0" class="er entityBox"></rect><text transform="translate(72.49669647216797,12)" style="dominant-baseline: middle; text-anchor: middle; font-size: 12px;" y="0" x="0" id="text-entity-Subscription-57a38d08-83cf-5b3e-8b7c-3deeaeab3fc2" class="er entityLabel">Subscription</text><rect height="22" width="31.0858154296875" y="24" x="0" class="er attributeBoxOdd"></rect><text transform="translate(5,35)" style="dominant-baseline: middle; font-size: 10.2px;" y="0" x="0" id="text-entity-Subscription-57a38d08-83cf-5b3e-8b7c-3deeaeab3fc2-attr-1-type" class="er entityLabel">int</text><rect height="22" width="91.55357360839844" y="24" x="31.0858154296875" class="er attributeBoxOdd"></rect><text transform="translate(36.0858154296875,35)" style="dominant-baseline: middle; font-size: 10.2px;" y="0" x="0" id="text-entity-Subscription-57a38d08-83cf-5b3e-8b7c-3deeaeab3fc2-attr-1-name" class="er entityLabel">subscriber_id</text><rect height="22" width="22.35400390625" y="24" x="122.63938903808594" class="er attributeBoxOdd"></rect><text transform="translate(127.63938903808594,35)" style="dominant-baseline: middle; font-size: 10.2px;" y="0" x="0" id="text-entity-Subscription-57a38d08-83cf-5b3e-8b7c-3deeaeab3fc2-attr-1-key" class="er entityLabel">FK</text><rect height="22" width="31.0858154296875" y="46" x="0" class="er attributeBoxEven"></rect><text transform="translate(5,57)" style="dominant-baseline: middle; font-size: 10.2px;" y="0" x="0" id="text-entity-Subscription-57a38d08-83cf-5b3e-8b7c-3deeaeab3fc2-attr-2-type" class="er entityLabel">int</text><rect height="22" width="91.55357360839844" y="46" x="31.0858154296875" class="er attributeBoxEven"></rect><text transform="translate(36.0858154296875,57)" style="dominant-baseline: middle; font-size: 10.2px;" y="0" x="0" id="text-entity-Subscription-57a38d08-83cf-5b3e-8b7c-3deeaeab3fc2-attr-2-name" class="er entityLabel">subscribed_to_id</text><rect height="22" width="22.35400390625" y="46" x="122.63938903808594" class="er attributeBoxEven"></rect><text transform="translate(127.63938903808594,57)" style="dominant-baseline: middle; font-size: 10.2px;" y="0" x="0" id="text-entity-Subscription-57a38d08-83cf-5b3e-8b7c-3deeaeab3fc2-attr-2-key" class="er entityLabel">FK</text><rect height="22" width="31.0858154296875" y="68" x="0" class="er attributeBoxOdd"></rect><text transform="translate(5,79)" style="dominant-baseline: middle; font-size: 10.2px;" y="0" x="0" id="text-entity-Subscription-57a38d08-83cf-5b3e-8b7c-3deeaeab3fc2-attr-3-type" class="er entityLabel">date</text><rect height="22" width="91.55357360839844" y="68" x="31.0858154296875" class="er attributeBoxOdd"></rect><text transform="translate(36.0858154296875,79)" style="dominant-baseline: middle; font-size: 10.2px;" y="0" x="0" id="text-entity-Subscription-57a38d08-83cf-5b3e-8b7c-3deeaeab3fc2-attr-3-name" class="er entityLabel">subscription_date</text><rect height="22" width="22.35400390625" y="68" x="122.63938903808594" class="er attributeBoxOdd"></rect><text transform="translate(127.63938903808594,79)" style="dominant-baseline: middle; font-size: 10.2px;" y="0" x="0" id="text-entity-Subscription-57a38d08-83cf-5b3e-8b7c-3deeaeab3fc2-attr-3-key" class="er entityLabel"></text></g><g transform="translate(264.99339294433594,276 )" id="entity-Playlist-4f3cc4d1-d7e6-5e55-b501-e47738b90f51"><rect height="134" width="133.67776489257812" y="0" x="0" class="er entityBox"></rect><text transform="translate(66.83888244628906,12)" style="dominant-baseline: middle; text-anchor: middle; font-size: 12px;" y="0" x="0" id="text-entity-Playlist-4f3cc4d1-d7e6-5e55-b501-e47738b90f51" class="er entityLabel">Playlist</text><rect height="22" width="36.61909484863281" y="24" x="0" class="er attributeBoxOdd"></rect><text transform="translate(5,35)" style="dominant-baseline: middle; font-size: 10.2px;" y="0" x="0" id="text-entity-Playlist-4f3cc4d1-d7e6-5e55-b501-e47738b90f51-attr-1-type" class="er entityLabel">int</text><rect height="22" width="74.37098693847656" y="24" x="36.61909484863281" class="er attributeBoxOdd"></rect><text transform="translate(41.61909484863281,35)" style="dominant-baseline: middle; font-size: 10.2px;" y="0" x="0" id="text-entity-Playlist-4f3cc4d1-d7e6-5e55-b501-e47738b90f51-attr-1-name" class="er entityLabel">playlist_id</text><rect height="22" width="22.68768310546875" y="24" x="110.99008178710938" class="er attributeBoxOdd"></rect><text transform="translate(115.99008178710938,35)" style="dominant-baseline: middle; font-size: 10.2px;" y="0" x="0" id="text-entity-Playlist-4f3cc4d1-d7e6-5e55-b501-e47738b90f51-attr-1-key" class="er entityLabel">PK</text><rect height="22" width="36.61909484863281" y="46" x="0" class="er attributeBoxEven"></rect><text transform="translate(5,57)" style="dominant-baseline: middle; font-size: 10.2px;" y="0" x="0" id="text-entity-Playlist-4f3cc4d1-d7e6-5e55-b501-e47738b90f51-attr-2-type" class="er entityLabel">int</text><rect height="22" width="74.37098693847656" y="46" x="36.61909484863281" class="er attributeBoxEven"></rect><text transform="translate(41.61909484863281,57)" style="dominant-baseline: middle; font-size: 10.2px;" y="0" x="0" id="text-entity-Playlist-4f3cc4d1-d7e6-5e55-b501-e47738b90f51-attr-2-name" class="er entityLabel">user_id</text><rect height="22" width="22.68768310546875" y="46" x="110.99008178710938" class="er attributeBoxEven"></rect><text transform="translate(115.99008178710938,57)" style="dominant-baseline: middle; font-size: 10.2px;" y="0" x="0" id="text-entity-Playlist-4f3cc4d1-d7e6-5e55-b501-e47738b90f51-attr-2-key" class="er entityLabel">FK</text><rect height="22" width="36.61909484863281" y="68" x="0" class="er attributeBoxOdd"></rect><text transform="translate(5,79)" style="dominant-baseline: middle; font-size: 10.2px;" y="0" x="0" id="text-entity-Playlist-4f3cc4d1-d7e6-5e55-b501-e47738b90f51-attr-3-type" class="er entityLabel">string</text><rect height="22" width="74.37098693847656" y="68" x="36.61909484863281" class="er attributeBoxOdd"></rect><text transform="translate(41.61909484863281,79)" style="dominant-baseline: middle; font-size: 10.2px;" y="0" x="0" id="text-entity-Playlist-4f3cc4d1-d7e6-5e55-b501-e47738b90f51-attr-3-name" class="er entityLabel">name</text><rect height="22" width="22.68768310546875" y="68" x="110.99008178710938" class="er attributeBoxOdd"></rect><text transform="translate(115.99008178710938,79)" style="dominant-baseline: middle; font-size: 10.2px;" y="0" x="0" id="text-entity-Playlist-4f3cc4d1-d7e6-5e55-b501-e47738b90f51-attr-3-key" class="er entityLabel"></text><rect height="22" width="36.61909484863281" y="90" x="0" class="er attributeBoxEven"></rect><text transform="translate(5,101)" style="dominant-baseline: middle; font-size: 10.2px;" y="0" x="0" id="text-entity-Playlist-4f3cc4d1-d7e6-5e55-b501-e47738b90f51-attr-4-type" class="er entityLabel">string</text><rect height="22" width="74.37098693847656" y="90" x="36.61909484863281" class="er attributeBoxEven"></rect><text transform="translate(41.61909484863281,101)" style="dominant-baseline: middle; font-size: 10.2px;" y="0" x="0" id="text-entity-Playlist-4f3cc4d1-d7e6-5e55-b501-e47738b90f51-attr-4-name" class="er entityLabel">description</text><rect height="22" width="22.68768310546875" y="90" x="110.99008178710938" class="er attributeBoxEven"></rect><text transform="translate(115.99008178710938,101)" style="dominant-baseline: middle; font-size: 10.2px;" y="0" x="0" id="text-entity-Playlist-4f3cc4d1-d7e6-5e55-b501-e47738b90f51-attr-4-key" class="er entityLabel"></text><rect height="22" width="36.61909484863281" y="112" x="0" class="er attributeBoxOdd"></rect><text transform="translate(5,123)" style="dominant-baseline: middle; font-size: 10.2px;" y="0" x="0" id="text-entity-Playlist-4f3cc4d1-d7e6-5e55-b501-e47738b90f51-attr-5-type" class="er entityLabel">date</text><rect height="22" width="74.37098693847656" y="112" x="36.61909484863281" class="er attributeBoxOdd"></rect><text transform="translate(41.61909484863281,123)" style="dominant-baseline: middle; font-size: 10.2px;" y="0" x="0" id="text-entity-Playlist-4f3cc4d1-d7e6-5e55-b501-e47738b90f51-attr-5-name" class="er entityLabel">creation_date</text><rect height="22" width="22.68768310546875" y="112" x="110.99008178710938" class="er attributeBoxOdd"></rect><text transform="translate(115.99008178710938,123)" style="dominant-baseline: middle; font-size: 10.2px;" y="0" x="0" id="text-entity-Playlist-4f3cc4d1-d7e6-5e55-b501-e47738b90f51-attr-5-key" class="er entityLabel"></text></g><g transform="translate(280.20068359375,510 )" id="entity-PlaylistVideo-ee67e7d7-8330-5923-94ce-1443e30d948b"><rect height="68" width="103.26318359375" y="0" x="0" class="er entityBox"></rect><text transform="translate(51.631591796875,12)" style="dominant-baseline: middle; text-anchor: middle; font-size: 12px;" y="0" x="0" id="text-entity-PlaylistVideo-ee67e7d7-8330-5923-94ce-1443e30d948b" class="er entityLabel">PlaylistVideo</text><rect height="22" width="23.481719970703125" y="24" x="0" class="er attributeBoxOdd"></rect><text transform="translate(5,35)" style="dominant-baseline: middle; font-size: 10.2px;" y="0" x="0" id="text-entity-PlaylistVideo-ee67e7d7-8330-5923-94ce-1443e30d948b-attr-1-type" class="er entityLabel">int</text><rect height="22" width="57.427459716796875" y="24" x="23.481719970703125" class="er attributeBoxOdd"></rect><text transform="translate(28.481719970703125,35)" style="dominant-baseline: middle; font-size: 10.2px;" y="0" x="0" id="text-entity-PlaylistVideo-ee67e7d7-8330-5923-94ce-1443e30d948b-attr-1-name" class="er entityLabel">playlist_id</text><rect height="22" width="22.35400390625" y="24" x="80.9091796875" class="er attributeBoxOdd"></rect><text transform="translate(85.9091796875,35)" style="dominant-baseline: middle; font-size: 10.2px;" y="0" x="0" id="text-entity-PlaylistVideo-ee67e7d7-8330-5923-94ce-1443e30d948b-attr-1-key" class="er entityLabel">FK</text><rect height="22" width="23.481719970703125" y="46" x="0" class="er attributeBoxEven"></rect><text transform="translate(5,57)" style="dominant-baseline: middle; font-size: 10.2px;" y="0" x="0" id="text-entity-PlaylistVideo-ee67e7d7-8330-5923-94ce-1443e30d948b-attr-2-type" class="er entityLabel">int</text><rect height="22" width="57.427459716796875" y="46" x="23.481719970703125" class="er attributeBoxEven"></rect><text transform="translate(28.481719970703125,57)" style="dominant-baseline: middle; font-size: 10.2px;" y="0" x="0" id="text-entity-PlaylistVideo-ee67e7d7-8330-5923-94ce-1443e30d948b-attr-2-name" class="er entityLabel">video_id</text><rect height="22" width="22.35400390625" y="46" x="80.9091796875" class="er attributeBoxEven"></rect><text transform="translate(85.9091796875,57)" style="dominant-baseline: middle; font-size: 10.2px;" y="0" x="0" id="text-entity-PlaylistVideo-ee67e7d7-8330-5923-94ce-1443e30d948b-attr-2-key" class="er entityLabel">FK</text></g><rect height="14" width="41.2109375" y="422.5914611816406" x="478.0655212402344" class="er relationshipLabelBox"></rect><text style="text-anchor: middle; dominant-baseline: middle; font-size: 12px;" y="429.5914611816406" x="498.6709899902344" id="rel17" class="er relationshipLabel">uploads</text><rect height="14" width="33.86328125" y="554.476806640625" x="615.08935546875" class="er relationshipLabelBox"></rect><text style="text-anchor: middle; dominant-baseline: middle; font-size: 12px;" y="561.476806640625" x="632.02099609375" id="rel18" class="er relationshipLabel">makes</text><rect height="14" width="24.55859375" y="479.75244140625" x="829.3367309570312" class="er relationshipLabelBox"></rect><text style="text-anchor: middle; dominant-baseline: middle; font-size: 12px;" y="486.75244140625" x="841.6160278320312" id="rel19" class="er relationshipLabel">likes</text><rect height="14" width="55.21484375" y="175.40447998046875" x="211.00843811035156" class="er relationshipLabelBox"></rect><text style="text-anchor: middle; dominant-baseline: middle; font-size: 12px;" y="182.40447998046875" x="238.61585998535156" id="rel20" class="er relationshipLabel">subscribes</text><rect height="14" width="39.7578125" y="196.48703002929688" x="345.2897644042969" class="er relationshipLabelBox"></rect><text style="text-anchor: middle; dominant-baseline: middle; font-size: 12px;" y="203.48703002929688" x="365.1686706542969" id="rel21" class="er relationshipLabel">creates</text><rect height="14" width="17.861328125" y="936.9752197265625" x="471.9374084472656" class="er relationshipLabelBox"></rect><text style="text-anchor: middle; dominant-baseline: middle; font-size: 12px;" y="943.9752197265625" x="480.8680725097656" id="rel22" class="er relationshipLabel">has</text><rect height="14" width="44.5390625" y="886.7958984375" x="630.739990234375" class="er relationshipLabelBox"></rect><text style="text-anchor: middle; dominant-baseline: middle; font-size: 12px;" y="893.7958984375" x="653.009521484375" id="rel23" class="er relationshipLabel">receives</text><rect height="14" width="58.697265625" y="936.209228515625" x="328.46746826171875" class="er relationshipLabelBox"></rect><text style="text-anchor: middle; dominant-baseline: middle; font-size: 12px;" y="943.209228515625" x="357.81610107421875" id="rel24" class="er relationshipLabel">belongs_to</text><rect height="14" width="79.73828125" y="1138.5" x="315.85687255859375" class="er relationshipLabelBox"></rect><text style="text-anchor: middle; dominant-baseline: middle; font-size: 12px;" y="1145.5" x="355.72601318359375" id="rel25" class="er relationshipLabel">categorized_in</text><rect height="14" width="44.978515625" y="453" x="309.3427429199219" class="er relationshipLabelBox"></rect><text style="text-anchor: middle; dominant-baseline: middle; font-size: 12px;" y="460" x="331.8320007324219" id="rel26" class="er relationshipLabel">contains</text><rect height="14" width="44.24609375" y="623.3305053710938" x="315.02154541015625" class="er relationshipLabelBox"></rect><text style="text-anchor: middle; dominant-baseline: middle; font-size: 12px;" y="630.3305053710938" x="337.14459228515625" id="rel27" class="er relationshipLabel">includes</text></svg>